<svg xmlns="http://www.w3.org/2000/svg" xmlns:xlink="http://www.w3.org/1999/xlink" width="310" zoomAndPan="magnify" viewBox="0 0 232.5 299.999988" height="400" preserveAspectRatio="xMidYMid meet" version="1.0"><defs><g/><clipPath id="3226bc32d0"><path d="M 16 40.226562 L 216 40.226562 L 216 243.042969 L 16 243.042969 Z M 16 40.226562 " clip-rule="nonzero"/></clipPath></defs><g clip-path="url(#3226bc32d0)"><path fill="#fea904" d="M 205.929688 162.15625 C 205.023438 166.136719 200.984375 168.695312 197.074219 171.171875 C 194.125 173.042969 191.074219 174.976562 189.980469 177.246094 C 188.851562 179.585938 189.242188 183.230469 189.617188 186.753906 C 190.101562 191.300781 190.601562 196.003906 188.109375 199.125 C 185.601562 202.261719 180.890625 202.820312 176.335938 203.355469 C 172.828125 203.765625 169.203125 204.195312 167.191406 205.800781 C 165.199219 207.394531 163.988281 210.820312 162.8125 214.128906 C 161.277344 218.46875 159.6875 222.960938 156.042969 224.71875 C 154.976562 225.230469 153.789062 225.484375 152.421875 225.484375 C 149.679688 225.480469 146.644531 224.441406 143.707031 223.429688 C 140.953125 222.484375 138.109375 221.507812 135.777344 221.507812 C 135.242188 221.507812 134.746094 221.558594 134.296875 221.65625 C 131.875 222.210938 129.332031 224.734375 126.867188 227.175781 C 123.566406 230.449219 120.15625 233.832031 116.027344 233.832031 C 111.898438 233.832031 108.488281 230.449219 105.183594 227.175781 C 102.726562 224.734375 100.179688 222.210938 97.757812 221.65625 C 97.308594 221.558594 96.8125 221.507812 96.277344 221.507812 C 93.945312 221.507812 91.097656 222.484375 88.347656 223.429688 C 85.410156 224.441406 82.375 225.484375 79.632812 225.484375 C 78.28125 225.484375 77.066406 225.226562 76.011719 224.71875 C 72.371094 222.960938 70.78125 218.472656 69.242188 214.128906 C 68.070312 210.820312 66.859375 207.394531 64.863281 205.800781 C 62.851562 204.195312 59.226562 203.769531 55.71875 203.355469 C 51.164062 202.820312 46.453125 202.265625 43.945312 199.125 C 41.449219 196.003906 41.953125 191.300781 42.4375 186.753906 C 42.8125 183.230469 43.203125 179.585938 42.070312 177.25 C 40.976562 174.976562 37.925781 173.042969 34.980469 171.175781 C 31.066406 168.699219 27.027344 166.136719 26.125 162.15625 C 25.253906 158.332031 27.722656 154.355469 30.113281 150.515625 C 32.003906 147.464844 33.964844 144.3125 33.964844 141.636719 C 33.964844 138.964844 32.003906 135.8125 30.113281 132.761719 C 27.722656 128.921875 25.253906 124.945312 26.125 121.121094 C 27.027344 117.140625 31.066406 114.578125 34.976562 112.101562 C 37.925781 110.230469 40.976562 108.296875 42.070312 106.027344 C 43.199219 103.6875 42.8125 100.042969 42.4375 96.523438 C 41.953125 91.976562 41.449219 87.273438 43.941406 84.148438 C 46.453125 81.011719 51.164062 80.457031 55.71875 79.921875 C 59.226562 79.507812 62.847656 79.082031 64.863281 77.476562 C 66.855469 75.882812 68.066406 72.457031 69.238281 69.144531 C 70.78125 64.804688 72.367188 60.316406 76.011719 58.558594 C 77.078125 58.042969 78.261719 57.792969 79.632812 57.792969 C 82.375 57.792969 85.410156 58.835938 88.347656 59.84375 C 91.097656 60.789062 93.945312 61.769531 96.277344 61.769531 C 96.8125 61.769531 97.308594 61.71875 97.757812 61.613281 C 100.179688 61.066406 102.726562 58.539062 105.183594 56.097656 C 108.488281 52.828125 111.898438 49.441406 116.027344 49.441406 C 120.15625 49.441406 123.566406 52.828125 126.867188 56.097656 C 129.332031 58.539062 131.875 61.066406 134.296875 61.613281 C 134.746094 61.71875 135.242188 61.769531 135.773438 61.769531 C 138.109375 61.769531 140.953125 60.789062 143.707031 59.84375 C 146.644531 58.835938 149.679688 57.792969 152.421875 57.792969 C 153.789062 57.792969 154.972656 58.042969 156.039062 58.554688 C 159.6875 60.3125 161.273438 64.800781 162.8125 69.144531 C 163.980469 72.457031 165.199219 75.882812 167.191406 77.476562 C 169.203125 79.082031 172.828125 79.507812 176.332031 79.917969 C 180.890625 80.453125 185.601562 81.007812 188.109375 84.148438 C 190.601562 87.273438 190.101562 91.972656 189.613281 96.523438 C 189.242188 100.042969 188.851562 103.6875 189.980469 106.027344 C 191.074219 108.296875 194.125 110.230469 197.074219 112.097656 C 200.984375 114.574219 205.023438 117.140625 205.929688 121.121094 C 206.800781 124.945312 204.332031 128.921875 201.941406 132.761719 C 200.046875 135.8125 198.089844 138.964844 198.089844 141.636719 C 198.089844 144.3125 200.046875 147.464844 201.941406 150.515625 C 204.332031 154.355469 206.800781 158.332031 205.929688 162.15625 Z M 214.898438 119.078125 C 213.289062 112 200.28125 108.9375 197.203125 102.550781 C 194.074219 96.0625 199.75 83.992188 195.300781 78.417969 C 190.828125 72.816406 177.785156 75.683594 172.1875 71.210938 C 166.613281 66.757812 166.519531 53.398438 160.03125 50.269531 C 153.648438 47.1875 143.15625 55.410156 136.078125 53.804688 C 129.230469 52.246094 123.347656 40.246094 116.027344 40.246094 C 108.703125 40.246094 102.824219 52.246094 95.972656 53.804688 C 88.898438 55.410156 78.40625 47.1875 72.019531 50.269531 C 65.53125 53.398438 65.441406 66.757812 59.867188 71.210938 C 54.265625 75.683594 41.226562 72.816406 36.753906 78.417969 C 32.300781 83.992188 37.984375 96.0625 34.851562 102.550781 C 31.773438 108.9375 18.765625 112 17.15625 119.078125 C 15.597656 125.925781 25.953125 134.3125 25.953125 141.636719 C 25.953125 148.960938 15.597656 157.347656 17.15625 164.203125 C 18.765625 171.277344 31.773438 174.339844 34.851562 180.722656 C 37.984375 187.210938 32.300781 199.285156 36.753906 204.859375 C 41.226562 210.460938 54.269531 207.59375 59.871094 212.066406 C 65.445312 216.515625 65.535156 229.875 72.023438 233.007812 C 78.40625 236.085938 88.898438 227.863281 95.972656 229.472656 C 102.824219 231.03125 108.703125 243.03125 116.027344 243.03125 C 123.347656 243.03125 129.230469 231.03125 136.082031 229.472656 C 143.15625 227.863281 153.648438 236.085938 160.03125 233.007812 C 166.519531 229.875 166.613281 216.515625 172.1875 212.066406 C 177.785156 207.59375 190.828125 210.457031 195.300781 204.855469 C 199.75 199.285156 194.074219 187.210938 197.203125 180.722656 C 200.28125 174.339844 213.289062 171.277344 214.898438 164.203125 C 216.453125 157.347656 206.101562 148.960938 206.101562 141.636719 C 206.101562 134.3125 216.453125 125.925781 214.898438 119.078125 " fill-opacity="1" fill-rule="nonzero"/></g><path fill="#fea904" d="M 195.261719 141.636719 C 195.261719 138.15625 197.433594 134.65625 199.535156 131.269531 C 201.625 127.910156 203.78125 124.4375 203.171875 121.75 C 202.523438 118.902344 198.984375 116.660156 195.558594 114.488281 C 192.277344 112.40625 188.878906 110.253906 187.433594 107.257812 C 185.953125 104.191406 186.382812 100.140625 186.800781 96.222656 C 187.226562 92.246094 187.664062 88.128906 185.898438 85.917969 C 184.113281 83.683594 179.992188 83.199219 176.003906 82.730469 C 172.101562 82.269531 168.070312 81.796875 165.425781 79.683594 C 162.796875 77.589844 161.449219 73.777344 160.144531 70.085938 C 158.796875 66.285156 157.40625 62.355469 154.8125 61.101562 C 154.136719 60.78125 153.355469 60.621094 152.421875 60.621094 C 150.152344 60.621094 147.339844 61.585938 144.625 62.523438 C 141.652344 63.542969 138.582031 64.597656 135.773438 64.597656 C 135.03125 64.597656 134.324219 64.523438 133.671875 64.375 C 130.457031 63.644531 127.621094 60.832031 124.875 58.109375 C 121.980469 55.238281 118.992188 52.273438 116.027344 52.273438 C 113.066406 52.273438 110.070312 55.238281 107.175781 58.109375 C 104.433594 60.832031 101.597656 63.644531 98.386719 64.375 C 97.730469 64.523438 97.023438 64.597656 96.277344 64.597656 C 93.472656 64.597656 90.398438 63.542969 87.425781 62.523438 C 84.710938 61.585938 81.902344 60.625 79.632812 60.625 C 78.695312 60.625 77.914062 60.78125 77.242188 61.105469 C 74.644531 62.355469 73.253906 66.289062 71.910156 70.089844 C 70.601562 73.777344 69.253906 77.589844 66.628906 79.6875 C 63.984375 81.796875 59.949219 82.273438 56.046875 82.730469 C 52.058594 83.199219 47.9375 83.683594 46.15625 85.917969 C 44.386719 88.132812 44.824219 92.246094 45.25 96.222656 C 45.667969 100.140625 46.101562 104.191406 44.621094 107.257812 C 43.171875 110.257812 39.777344 112.40625 36.492188 114.492188 C 33.070312 116.660156 29.527344 118.90625 28.882812 121.75 C 28.273438 124.441406 30.429688 127.914062 32.515625 131.269531 C 34.617188 134.65625 36.792969 138.15625 36.792969 141.636719 C 36.792969 145.121094 34.617188 148.621094 32.515625 152.003906 C 30.429688 155.367188 28.273438 158.835938 28.882812 161.527344 C 29.53125 164.371094 33.070312 166.617188 36.492188 168.785156 C 39.777344 170.867188 43.171875 173.019531 44.621094 176.019531 C 46.101562 179.085938 45.667969 183.136719 45.25 187.054688 C 44.828125 191.03125 44.390625 195.148438 46.15625 197.359375 C 47.9375 199.59375 52.0625 200.078125 56.050781 200.546875 C 59.953125 201.003906 63.984375 201.476562 66.628906 203.589844 C 69.253906 205.6875 70.605469 209.503906 71.910156 213.1875 C 73.253906 216.988281 74.648438 220.917969 77.242188 222.171875 C 77.917969 222.496094 78.699219 222.65625 79.632812 222.65625 C 81.902344 222.65625 84.714844 221.6875 87.429688 220.753906 C 90.398438 219.734375 93.472656 218.679688 96.277344 218.679688 C 97.019531 218.679688 97.730469 218.753906 98.382812 218.902344 C 101.597656 219.632812 104.433594 222.441406 107.179688 225.167969 C 110.070312 228.035156 113.066406 231.003906 116.027344 231.003906 C 118.988281 231.003906 121.980469 228.035156 124.875 225.167969 C 127.621094 222.445312 130.457031 219.632812 133.671875 218.902344 C 134.324219 218.753906 135.03125 218.679688 135.777344 218.679688 C 138.582031 218.679688 141.652344 219.734375 144.628906 220.753906 C 147.34375 221.6875 150.152344 222.652344 152.421875 222.65625 C 153.359375 222.65625 154.136719 222.496094 154.8125 222.171875 C 157.410156 220.917969 158.800781 216.988281 160.144531 213.183594 C 161.453125 209.5 162.800781 205.6875 165.425781 203.589844 C 168.070312 201.476562 172.101562 201.003906 176.003906 200.546875 C 179.992188 200.078125 184.117188 199.589844 185.902344 197.359375 C 187.664062 195.144531 187.230469 191.03125 186.800781 187.054688 C 186.382812 183.136719 185.953125 179.085938 187.433594 176.019531 C 188.878906 173.019531 192.277344 170.867188 195.5625 168.785156 C 198.984375 166.613281 202.527344 164.371094 203.171875 161.527344 C 203.78125 158.835938 201.625 155.367188 199.535156 152.007812 C 197.433594 148.621094 195.261719 145.121094 195.261719 141.636719 " fill-opacity="1" fill-rule="nonzero"/><g fill="#000000" fill-opacity="0.4"><g transform="translate(39.897686, 149.559812)"><g><path d="M 14.09375 -13.96875 L 17.484375 -13.96875 L 17.484375 0 L 13.671875 0 L 13.671875 -7.5625 L 10.28125 -3.3125 L 8.59375 -3.3125 L 5.203125 -7.5625 L 5.203125 0 L 1.390625 0 L 1.390625 -13.96875 L 4.78125 -13.96875 L 9.4375 -7.796875 Z M 14.09375 -13.96875 "/></g></g></g><g fill="#000000" fill-opacity="0.4"><g transform="translate(58.769641, 149.559812)"><g><path d="M 10.59375 0 L 9.734375 -2.46875 L 5.3125 -2.46875 L 4.453125 0 L 0.203125 0 L 5.46875 -13.96875 L 9.5625 -13.96875 L 14.84375 0 Z M 6.4375 -5.703125 L 8.59375 -5.703125 L 7.515625 -8.78125 Z M 6.4375 -5.703125 "/></g></g></g><g fill="#000000" fill-opacity="0.4"><g transform="translate(73.811347, 149.559812)"><g><path d="M 5.234375 -13.96875 L 5.234375 0 L 1.390625 0 L 1.390625 -13.96875 Z M 5.234375 -13.96875 "/></g></g></g><g fill="#000000" fill-opacity="0.4"><g transform="translate(80.434483, 149.559812)"><g><path d="M 5.484375 -10.21875 C 5.421875 -9.90625 5.503906 -9.644531 5.734375 -9.4375 C 5.960938 -9.226562 6.289062 -9.039062 6.71875 -8.875 C 7.15625 -8.707031 7.632812 -8.535156 8.15625 -8.359375 C 8.6875 -8.179688 9.210938 -7.972656 9.734375 -7.734375 C 10.265625 -7.492188 10.742188 -7.203125 11.171875 -6.859375 C 11.609375 -6.523438 11.953125 -6.101562 12.203125 -5.59375 C 12.453125 -5.09375 12.546875 -4.484375 12.484375 -3.765625 C 12.429688 -2.984375 12.242188 -2.328125 11.921875 -1.796875 C 11.597656 -1.273438 11.195312 -0.859375 10.71875 -0.546875 C 10.238281 -0.242188 9.710938 -0.0234375 9.140625 0.109375 C 8.578125 0.242188 8.015625 0.320312 7.453125 0.34375 C 6.898438 0.363281 6.390625 0.347656 5.921875 0.296875 C 5.203125 0.210938 4.507812 0.0703125 3.84375 -0.125 C 3.1875 -0.332031 2.578125 -0.578125 2.015625 -0.859375 C 1.453125 -1.148438 0.976562 -1.4375 0.59375 -1.71875 L 2.359375 -4.609375 C 2.671875 -4.253906 3.066406 -3.945312 3.546875 -3.6875 C 4.023438 -3.425781 4.523438 -3.222656 5.046875 -3.078125 C 5.578125 -2.941406 6.082031 -2.867188 6.5625 -2.859375 C 7.039062 -2.859375 7.441406 -2.925781 7.765625 -3.0625 C 8.097656 -3.195312 8.296875 -3.421875 8.359375 -3.734375 C 8.441406 -4.085938 8.363281 -4.378906 8.125 -4.609375 C 7.894531 -4.835938 7.566406 -5.035156 7.140625 -5.203125 C 6.710938 -5.367188 6.238281 -5.53125 5.71875 -5.6875 C 5.207031 -5.84375 4.691406 -6.035156 4.171875 -6.265625 C 3.648438 -6.492188 3.179688 -6.78125 2.765625 -7.125 C 2.347656 -7.476562 2.03125 -7.925781 1.8125 -8.46875 C 1.601562 -9.007812 1.546875 -9.675781 1.640625 -10.46875 C 1.703125 -10.988281 1.851562 -11.488281 2.09375 -11.96875 C 2.332031 -12.445312 2.679688 -12.875 3.140625 -13.25 C 3.609375 -13.625 4.210938 -13.90625 4.953125 -14.09375 C 5.703125 -14.289062 6.613281 -14.351562 7.6875 -14.28125 C 8.582031 -14.226562 9.332031 -14.109375 9.9375 -13.921875 C 10.550781 -13.734375 11.03125 -13.539062 11.375 -13.34375 C 11.71875 -13.144531 11.9375 -13.003906 12.03125 -12.921875 L 10.671875 -9.9375 C 10.421875 -10.175781 10.09375 -10.390625 9.6875 -10.578125 C 9.28125 -10.773438 8.847656 -10.925781 8.390625 -11.03125 C 7.941406 -11.132812 7.507812 -11.179688 7.09375 -11.171875 C 6.675781 -11.160156 6.320312 -11.082031 6.03125 -10.9375 C 5.738281 -10.789062 5.554688 -10.550781 5.484375 -10.21875 Z M 5.484375 -10.21875 "/></g></g></g><g fill="#000000" fill-opacity="0.4"><g transform="translate(93.541115, 149.559812)"><g/></g></g><g fill="#000000" fill-opacity="0.4"><g transform="translate(98.688012, 149.559812)"><g><path d="M 10.8125 -13.96875 L 15.109375 -13.96875 L 9.734375 0 L 5.5625 0 L 0.203125 -13.96875 L 4.484375 -13.96875 L 7.640625 -5.109375 Z M 10.8125 -13.96875 "/></g></g></g><g fill="#000000" fill-opacity="0.4"><g transform="translate(113.989057, 149.559812)"><g><path d="M 5.203125 -3.234375 L 11.828125 -3.234375 L 11.828125 0 L 1.390625 0 L 1.390625 -13.96875 L 11.5 -13.96875 L 11.5 -10.734375 L 5.203125 -10.734375 L 5.203125 -8.59375 L 10.875 -8.59375 L 10.875 -5.375 L 5.203125 -5.375 Z M 5.203125 -3.234375 "/></g></g></g><g fill="#000000" fill-opacity="0.4"><g transform="translate(126.816401, 149.559812)"><g><path d="M 1.390625 -13.96875 L 4.78125 -13.96875 L 9.640625 -6.5625 L 9.640625 -13.96875 L 13.46875 -13.96875 L 13.46875 0 L 10.078125 0 L 5.234375 -7.421875 L 5.234375 0 L 1.390625 0 Z M 1.390625 -13.96875 "/></g></g></g><g fill="#000000" fill-opacity="0.4"><g transform="translate(141.678559, 149.559812)"><g><path d="M 6.90625 -13.96875 C 8.207031 -13.96875 9.34375 -13.78125 10.3125 -13.40625 C 11.28125 -13.03125 12.085938 -12.519531 12.734375 -11.875 C 13.378906 -11.238281 13.863281 -10.5 14.1875 -9.65625 C 14.507812 -8.820312 14.671875 -7.929688 14.671875 -6.984375 C 14.671875 -6.054688 14.507812 -5.164062 14.1875 -4.3125 C 13.863281 -3.46875 13.378906 -2.722656 12.734375 -2.078125 C 12.085938 -1.441406 11.28125 -0.9375 10.3125 -0.5625 C 9.34375 -0.1875 8.207031 0 6.90625 0 L 1.390625 0 L 1.390625 -13.96875 Z M 6.640625 -3.234375 C 7.703125 -3.234375 8.5625 -3.398438 9.21875 -3.734375 C 9.882812 -4.078125 10.363281 -4.535156 10.65625 -5.109375 C 10.957031 -5.679688 11.109375 -6.304688 11.109375 -6.984375 C 11.109375 -7.671875 10.957031 -8.296875 10.65625 -8.859375 C 10.363281 -9.429688 9.882812 -9.882812 9.21875 -10.21875 C 8.5625 -10.5625 7.703125 -10.734375 6.640625 -10.734375 L 5.203125 -10.734375 L 5.203125 -3.234375 Z M 6.640625 -3.234375 "/></g></g></g><g fill="#000000" fill-opacity="0.4"><g transform="translate(156.939703, 149.559812)"><g><path d="M 5.234375 -13.96875 L 5.234375 0 L 1.390625 0 L 1.390625 -13.96875 Z M 5.234375 -13.96875 "/></g></g></g><g fill="#000000" fill-opacity="0.4"><g transform="translate(163.562838, 149.559812)"><g><path d="M 6.90625 -13.96875 C 8.207031 -13.96875 9.34375 -13.78125 10.3125 -13.40625 C 11.28125 -13.03125 12.085938 -12.519531 12.734375 -11.875 C 13.378906 -11.238281 13.863281 -10.5 14.1875 -9.65625 C 14.507812 -8.820312 14.671875 -7.929688 14.671875 -6.984375 C 14.671875 -6.054688 14.507812 -5.164062 14.1875 -4.3125 C 13.863281 -3.46875 13.378906 -2.722656 12.734375 -2.078125 C 12.085938 -1.441406 11.28125 -0.9375 10.3125 -0.5625 C 9.34375 -0.1875 8.207031 0 6.90625 0 L 1.390625 0 L 1.390625 -13.96875 Z M 6.640625 -3.234375 C 7.703125 -3.234375 8.5625 -3.398438 9.21875 -3.734375 C 9.882812 -4.078125 10.363281 -4.535156 10.65625 -5.109375 C 10.957031 -5.679688 11.109375 -6.304688 11.109375 -6.984375 C 11.109375 -7.671875 10.957031 -8.296875 10.65625 -8.859375 C 10.363281 -9.429688 9.882812 -9.882812 9.21875 -10.21875 C 8.5625 -10.5625 7.703125 -10.734375 6.640625 -10.734375 L 5.203125 -10.734375 L 5.203125 -3.234375 Z M 6.640625 -3.234375 "/></g></g></g><g fill="#000000" fill-opacity="0.4"><g transform="translate(178.823983, 149.559812)"><g><path d="M 10.59375 0 L 9.734375 -2.46875 L 5.3125 -2.46875 L 4.453125 0 L 0.203125 0 L 5.46875 -13.96875 L 9.5625 -13.96875 L 14.84375 0 Z M 6.4375 -5.703125 L 8.59375 -5.703125 L 7.515625 -8.78125 Z M 6.4375 -5.703125 "/></g></g></g><g fill="#f2f2f2" fill-opacity="1"><g transform="translate(39.015703, 148.677837)"><g><path d="M 14.09375 -13.96875 L 17.484375 -13.96875 L 17.484375 0 L 13.671875 0 L 13.671875 -7.5625 L 10.28125 -3.3125 L 8.59375 -3.3125 L 5.203125 -7.5625 L 5.203125 0 L 1.390625 0 L 1.390625 -13.96875 L 4.78125 -13.96875 L 9.4375 -7.796875 Z M 14.09375 -13.96875 "/></g></g></g><g fill="#f2f2f2" fill-opacity="1"><g transform="translate(57.887658, 148.677837)"><g><path d="M 10.59375 0 L 9.734375 -2.46875 L 5.3125 -2.46875 L 4.453125 0 L 0.203125 0 L 5.46875 -13.96875 L 9.5625 -13.96875 L 14.84375 0 Z M 6.4375 -5.703125 L 8.59375 -5.703125 L 7.515625 -8.78125 Z M 6.4375 -5.703125 "/></g></g></g><g fill="#f2f2f2" fill-opacity="1"><g transform="translate(72.929365, 148.677837)"><g><path d="M 5.234375 -13.96875 L 5.234375 0 L 1.390625 0 L 1.390625 -13.96875 Z M 5.234375 -13.96875 "/></g></g></g><g fill="#f2f2f2" fill-opacity="1"><g transform="translate(79.5525, 148.677837)"><g><path d="M 5.484375 -10.21875 C 5.421875 -9.90625 5.503906 -9.644531 5.734375 -9.4375 C 5.960938 -9.226562 6.289062 -9.039062 6.71875 -8.875 C 7.15625 -8.707031 7.632812 -8.535156 8.15625 -8.359375 C 8.6875 -8.179688 9.210938 -7.972656 9.734375 -7.734375 C 10.265625 -7.492188 10.742188 -7.203125 11.171875 -6.859375 C 11.609375 -6.523438 11.953125 -6.101562 12.203125 -5.59375 C 12.453125 -5.09375 12.546875 -4.484375 12.484375 -3.765625 C 12.429688 -2.984375 12.242188 -2.328125 11.921875 -1.796875 C 11.597656 -1.273438 11.195312 -0.859375 10.71875 -0.546875 C 10.238281 -0.242188 9.710938 -0.0234375 9.140625 0.109375 C 8.578125 0.242188 8.015625 0.320312 7.453125 0.34375 C 6.898438 0.363281 6.390625 0.347656 5.921875 0.296875 C 5.203125 0.210938 4.507812 0.0703125 3.84375 -0.125 C 3.1875 -0.332031 2.578125 -0.578125 2.015625 -0.859375 C 1.453125 -1.148438 0.976562 -1.4375 0.59375 -1.71875 L 2.359375 -4.609375 C 2.671875 -4.253906 3.066406 -3.945312 3.546875 -3.6875 C 4.023438 -3.425781 4.523438 -3.222656 5.046875 -3.078125 C 5.578125 -2.941406 6.082031 -2.867188 6.5625 -2.859375 C 7.039062 -2.859375 7.441406 -2.925781 7.765625 -3.0625 C 8.097656 -3.195312 8.296875 -3.421875 8.359375 -3.734375 C 8.441406 -4.085938 8.363281 -4.378906 8.125 -4.609375 C 7.894531 -4.835938 7.566406 -5.035156 7.140625 -5.203125 C 6.710938 -5.367188 6.238281 -5.53125 5.71875 -5.6875 C 5.207031 -5.84375 4.691406 -6.035156 4.171875 -6.265625 C 3.648438 -6.492188 3.179688 -6.78125 2.765625 -7.125 C 2.347656 -7.476562 2.03125 -7.925781 1.8125 -8.46875 C 1.601562 -9.007812 1.546875 -9.675781 1.640625 -10.46875 C 1.703125 -10.988281 1.851562 -11.488281 2.09375 -11.96875 C 2.332031 -12.445312 2.679688 -12.875 3.140625 -13.25 C 3.609375 -13.625 4.210938 -13.90625 4.953125 -14.09375 C 5.703125 -14.289062 6.613281 -14.351562 7.6875 -14.28125 C 8.582031 -14.226562 9.332031 -14.109375 9.9375 -13.921875 C 10.550781 -13.734375 11.03125 -13.539062 11.375 -13.34375 C 11.71875 -13.144531 11.9375 -13.003906 12.03125 -12.921875 L 10.671875 -9.9375 C 10.421875 -10.175781 10.09375 -10.390625 9.6875 -10.578125 C 9.28125 -10.773438 8.847656 -10.925781 8.390625 -11.03125 C 7.941406 -11.132812 7.507812 -11.179688 7.09375 -11.171875 C 6.675781 -11.160156 6.320312 -11.082031 6.03125 -10.9375 C 5.738281 -10.789062 5.554688 -10.550781 5.484375 -10.21875 Z M 5.484375 -10.21875 "/></g></g></g><g fill="#f2f2f2" fill-opacity="1"><g transform="translate(92.659132, 148.677837)"><g/></g></g><g fill="#f2f2f2" fill-opacity="1"><g transform="translate(97.80603, 148.677837)"><g><path d="M 10.8125 -13.96875 L 15.109375 -13.96875 L 9.734375 0 L 5.5625 0 L 0.203125 -13.96875 L 4.484375 -13.96875 L 7.640625 -5.109375 Z M 10.8125 -13.96875 "/></g></g></g><g fill="#f2f2f2" fill-opacity="1"><g transform="translate(113.107074, 148.677837)"><g><path d="M 5.203125 -3.234375 L 11.828125 -3.234375 L 11.828125 0 L 1.390625 0 L 1.390625 -13.96875 L 11.5 -13.96875 L 11.5 -10.734375 L 5.203125 -10.734375 L 5.203125 -8.59375 L 10.875 -8.59375 L 10.875 -5.375 L 5.203125 -5.375 Z M 5.203125 -3.234375 "/></g></g></g><g fill="#f2f2f2" fill-opacity="1"><g transform="translate(125.934419, 148.677837)"><g><path d="M 1.390625 -13.96875 L 4.78125 -13.96875 L 9.640625 -6.5625 L 9.640625 -13.96875 L 13.46875 -13.96875 L 13.46875 0 L 10.078125 0 L 5.234375 -7.421875 L 5.234375 0 L 1.390625 0 Z M 1.390625 -13.96875 "/></g></g></g><g fill="#f2f2f2" fill-opacity="1"><g transform="translate(140.796576, 148.677837)"><g><path d="M 6.90625 -13.96875 C 8.207031 -13.96875 9.34375 -13.78125 10.3125 -13.40625 C 11.28125 -13.03125 12.085938 -12.519531 12.734375 -11.875 C 13.378906 -11.238281 13.863281 -10.5 14.1875 -9.65625 C 14.507812 -8.820312 14.671875 -7.929688 14.671875 -6.984375 C 14.671875 -6.054688 14.507812 -5.164062 14.1875 -4.3125 C 13.863281 -3.46875 13.378906 -2.722656 12.734375 -2.078125 C 12.085938 -1.441406 11.28125 -0.9375 10.3125 -0.5625 C 9.34375 -0.1875 8.207031 0 6.90625 0 L 1.390625 0 L 1.390625 -13.96875 Z M 6.640625 -3.234375 C 7.703125 -3.234375 8.5625 -3.398438 9.21875 -3.734375 C 9.882812 -4.078125 10.363281 -4.535156 10.65625 -5.109375 C 10.957031 -5.679688 11.109375 -6.304688 11.109375 -6.984375 C 11.109375 -7.671875 10.957031 -8.296875 10.65625 -8.859375 C 10.363281 -9.429688 9.882812 -9.882812 9.21875 -10.21875 C 8.5625 -10.5625 7.703125 -10.734375 6.640625 -10.734375 L 5.203125 -10.734375 L 5.203125 -3.234375 Z M 6.640625 -3.234375 "/></g></g></g><g fill="#f2f2f2" fill-opacity="1"><g transform="translate(156.05772, 148.677837)"><g><path d="M 5.234375 -13.96875 L 5.234375 0 L 1.390625 0 L 1.390625 -13.96875 Z M 5.234375 -13.96875 "/></g></g></g><g fill="#f2f2f2" fill-opacity="1"><g transform="translate(162.680856, 148.677837)"><g><path d="M 6.90625 -13.96875 C 8.207031 -13.96875 9.34375 -13.78125 10.3125 -13.40625 C 11.28125 -13.03125 12.085938 -12.519531 12.734375 -11.875 C 13.378906 -11.238281 13.863281 -10.5 14.1875 -9.65625 C 14.507812 -8.820312 14.671875 -7.929688 14.671875 -6.984375 C 14.671875 -6.054688 14.507812 -5.164062 14.1875 -4.3125 C 13.863281 -3.46875 13.378906 -2.722656 12.734375 -2.078125 C 12.085938 -1.441406 11.28125 -0.9375 10.3125 -0.5625 C 9.34375 -0.1875 8.207031 0 6.90625 0 L 1.390625 0 L 1.390625 -13.96875 Z M 6.640625 -3.234375 C 7.703125 -3.234375 8.5625 -3.398438 9.21875 -3.734375 C 9.882812 -4.078125 10.363281 -4.535156 10.65625 -5.109375 C 10.957031 -5.679688 11.109375 -6.304688 11.109375 -6.984375 C 11.109375 -7.671875 10.957031 -8.296875 10.65625 -8.859375 C 10.363281 -9.429688 9.882812 -9.882812 9.21875 -10.21875 C 8.5625 -10.5625 7.703125 -10.734375 6.640625 -10.734375 L 5.203125 -10.734375 L 5.203125 -3.234375 Z M 6.640625 -3.234375 "/></g></g></g><g fill="#f2f2f2" fill-opacity="1"><g transform="translate(177.942, 148.677837)"><g><path d="M 10.59375 0 L 9.734375 -2.46875 L 5.3125 -2.46875 L 4.453125 0 L 0.203125 0 L 5.46875 -13.96875 L 9.5625 -13.96875 L 14.84375 0 Z M 6.4375 -5.703125 L 8.59375 -5.703125 L 7.515625 -8.78125 Z M 6.4375 -5.703125 "/></g></g></g></svg>