<svg width="737" height="735" viewBox="0 0 737 735" fill="none" xmlns="http://www.w3.org/2000/svg">
<path d="M520 292L453 221C446.6 216.6 440.667 218.833 438.5 220.5C361.5 292.333 206.6 437.2 203 442C200.6 446.8 201.667 451 202.5 452.5C223 475 265.4 521.4 271 527C279 530.5 284 528.333 285.5 527C361.5 456 514.8 312.6 520 307C523.2 300.6 521.333 294.333 520 292Z" fill="#ED145B"/>
<path d="M126.5 11.7206V125H596C606.5 127 610 135.5 610.5 139L610.3 609.5H725.5C732.5 609 735.833 601.833 736.5 598V111L626 0H138.5C131 1 127.333 7.81375 126.5 11.7206Z" fill="#ED145B"/>
<path d="M610 722.779V609.5L140.5 609.5C130 607.5 126.5 599 126 595.5L126.2 125L11 125C4 125.5 0.666687 132.667 0 136.5L0 623.5L110.5 734.5L598 734.5C605.5 733.5 609.167 726.686 610 722.779Z" fill="#ED145B"/>
</svg>
